<?xml version="1.0" ?><svg height="50px" version="1.1" viewBox="0 0 50 50" width="50px" xmlns="http://www.w3.org/2000/svg" xmlns:xlink="http://www.w3.org/1999/xlink"><title/><desc/><g fill="none" fill-rule="evenodd" id="csgo_squircle" stroke="none" stroke-width="1"><g id="csgo"><path d="M6,0 L44,0 C47.3137085,0 50,2.6862915 50,6 L50,44 C50,47.3137085 47.3137085,50 44,50 L6,50 C2.6862915,50 0,47.3137085 0,44 L0,6 C0,2.6862915 2.6862915,0 6,0 Z" fill="#050505" id="Background"/><path d="M23.9606977,5.09760617 C24.5988563,4.87663588 25.2959326,5.06110412 25.8807714,5.34934447 C26.2894168,5.61227114 26.6980622,5.87799491 27.155689,6.05001608 C27.1906758,6.11574775 27.2634483,6.24581254 27.298435,6.31014566 C27.2802419,6.35350059 27.2452552,6.44300754 27.227062,6.48636247 C27.5531387,7.22759192 27.7616598,8.10587888 27.4453795,8.88472921 C27.229861,9.14765589 26.8548029,9.18835358 26.5511178,9.29016774 C26.5497183,9.66637664 26.6098955,10.0385298 26.6420833,10.4119416 C27.2914377,10.5168325 27.8411497,10.0651021 28.4835067,10.1098556 C28.5702739,9.75042926 28.638848,9.38512902 28.7538845,9.03283525 C28.8868342,9.26639245 28.8922921,9.53505316 28.8938315,9.79797983 C29.061768,9.8455304 29.2325034,9.88888533 29.4043584,9.93070186 C29.4060377,9.99517484 29.4072973,10.1238411 29.4072973,10.1881742 C32.2230321,10.2049568 35.0372275,10.1754474 37.8531022,10.2035582 C37.8461049,10.2997782 37.8323901,10.4929174 37.8267922,10.5895569 C37.8995646,10.5895569 38.0479085,10.5909555 38.1218006,10.5909555 C38.1190016,10.0792275 38.1218006,9.56582118 38.1204011,9.05409315 C38.1917741,9.0511562 38.3317212,9.04696056 38.4016947,9.04556202 C38.403374,9.4483433 38.4046336,9.85112458 38.408832,10.2540457 C38.4702687,10.3295672 38.5934222,10.4804703 38.6552788,10.5559918 C38.7014613,10.5013087 38.7936864,10.3939003 38.839729,10.3392172 C39.053848,10.5393491 38.932094,10.8134642 38.9225776,11.0593286 C39.7104796,11.0507974 40.5064984,11.1039422 41.2918813,11.0396091 C41.3506591,10.9962541 41.4682146,10.9109428 41.5269924,10.8677278 C41.6348916,10.9095443 41.7439103,10.9516405 41.8516696,10.9949955 C42.2057356,10.9863245 42.5612011,10.9852056 42.9166667,10.9838071 C42.9093894,11.1670166 42.9037915,11.3500863 42.8967942,11.5334357 C42.4391673,11.5263031 41.980141,11.5166532 41.5295114,11.5948319 C41.2384215,11.344632 40.8479693,11.4240694 40.4967021,11.4145593 C39.9565065,11.4397331 39.3992373,11.344632 38.8761152,11.5165133 C38.5651528,11.6032232 38.2239619,11.5823848 37.9496657,11.4060282 C37.8836107,11.5696581 37.9846524,11.9360771 37.7086769,11.9219518 C36.6226877,11.9360771 35.538098,11.9123019 34.4535083,11.9290844 C34.3051644,12.007403 34.155421,12.0815259 34.0073571,12.1541105 C33.8506164,12.6212249 33.4013863,12.9329608 33.0190509,13.2182642 C32.9714689,13.9357184 33.2555615,14.605622 33.3661196,15.3019581 C33.1520006,15.3633543 32.9364822,15.4265686 32.7251621,15.4964959 C32.421477,16.2125515 32.6076066,17.1899954 31.9050724,17.689556 C31.3662762,18.0026905 31.0096911,18.6837825 30.283086,18.5762343 C30.6525462,18.8839144 30.1823241,18.7874147 30.2313055,18.5412706 C28.9172027,18.4251913 27.8102214,17.6545924 26.6682534,17.0673429 C26.6150736,17.3888686 26.5312453,17.7050799 26.4443382,18.0197528 C26.878174,18.102267 27.2364385,18.4211355 27.3134094,18.8658732 C27.451957,19.8352055 27.1748618,20.7975451 27.1790602,21.7693948 C27.2098486,22.3400016 26.9649412,22.862918 26.6598566,23.3286338 C26.3925577,23.6307198 25.9713171,23.3201027 25.6508383,23.2754891 C25.5779259,23.4167423 25.5066929,23.5581353 25.4367193,23.7006471 C25.5276849,24.0809118 25.5668701,24.4767004 25.6942219,24.8487136 C26.4093514,25.6388922 27.0601052,26.4949423 27.5597162,27.4389609 C28.0740041,28.5080466 28.5322968,29.6031426 28.9327368,30.7198102 C28.971782,30.9367248 29.1761047,31.0146238 29.3555169,31.0932221 C29.3793079,31.3169894 29.4030989,31.5404771 29.4254904,31.7671814 C29.4954639,31.8692753 29.5668369,31.9712293 29.6396094,32.0747217 C29.682993,33.4538281 29.513657,34.8270605 29.2992581,36.1878459 C29.1665883,36.8019475 29.5259724,37.4017839 29.3804274,38.0199413 C29.3972211,38.3364323 29.1791836,38.5754438 29.0767423,38.855153 C29.0571497,39.5082741 29.0249619,40.1696465 29.0966148,40.8216487 C29.1467158,41.2999515 29.5514427,41.6074918 29.825739,41.9642609 C30.1252257,42.2818707 30.3757309,42.7082875 30.8291594,42.8214298 C31.2559979,42.9486975 31.6632438,43.1333056 32.0394215,43.375394 C32.1541781,43.659159 32.1331861,43.9601261 32.0786067,44.2549396 C31.2585169,44.4059826 30.4216335,44.330601 29.593147,44.3433277 C28.9547085,44.376753 28.3854038,44.0341092 27.7651585,43.9626435 C27.1647856,43.9475392 26.4328625,44.2452896 25.9713171,43.7082479 C26.1669631,42.9631026 26.1826372,42.1628545 26.5406217,41.4676372 C26.6553783,40.6803956 26.4373408,39.8816859 26.4832434,39.0873117 C26.4149493,39.0299713 26.2775213,38.9152905 26.2089472,38.8576704 C26.2582086,38.3389497 26.0019655,37.8772896 25.9164579,37.3809456 C25.8607589,36.6560791 25.7947039,35.9319119 25.7107357,35.2102621 C25.6449606,34.8592271 25.8268917,34.5377013 26.074598,34.3041441 C26.0969896,33.8985657 26.1518488,33.4970431 26.1907541,33.0944017 C26.1305768,32.8327337 25.9220557,32.6384757 25.7877066,32.4147083 C25.3384765,32.6037917 24.7325057,32.5141449 24.4652069,32.0747217 C23.8313866,31.1322415 23.198686,30.1896214 22.5577285,29.2524557 C22.3058238,29.235813 22.0399243,29.2622455 21.8048133,29.1615502 C21.5335959,28.8833793 21.3919695,28.5127646 21.218715,28.1743165 C20.9708688,28.4526271 20.9889219,28.8790438 20.695313,29.1323205 C20.0739481,29.728241 19.9088105,30.6037309 19.5841334,31.3671972 C19.3353075,31.8621427 19.4752546,32.4593219 19.1978795,32.9419602 C19.0495356,33.2019499 18.6772764,33.2536961 18.5793135,33.5504676 C18.4505622,33.8704549 18.2994194,34.2020502 17.9985332,34.3967279 C17.6724566,34.6104257 17.5858293,35.0162838 17.4404243,35.3516551 C17.3074746,35.6608737 17.5048,35.9851965 17.4586175,36.3028064 C17.2514958,37.311298 16.6091388,38.1544814 16.339041,39.1419948 C16.2158876,39.5867325 16.0394143,40.087412 15.5216102,40.1823733 C14.9324331,41.23408 14.6078959,42.5208823 14.9409699,43.7050313 C15.1452926,44.0770445 15.1340968,44.4952098 15.0711206,44.9049838 C14.1350148,44.9778481 13.174838,45.1035774 12.2555258,44.8421891 C12.0400073,44.4154927 12.0707957,43.9134146 12.1155787,43.452314 C12.3995313,42.2394948 12.7761288,41.0480734 13.0069015,39.822947 C12.7186106,39.567013 12.7859251,39.17556 12.7913831,38.8327763 C12.7817267,38.1936407 13.2168221,37.6817728 13.5191078,37.157318 C13.6326048,36.6188778 13.579425,36.0402993 13.8577797,35.5461929 C14.1853957,34.9280355 14.4623509,34.2596703 14.9676998,33.7602495 C15.0641233,33.3197075 15.3890804,32.9869934 15.5203507,32.5628143 C15.6602978,32.188004 15.4153904,31.8075994 15.4646518,31.4245376 C15.5848663,30.2620661 15.7963263,29.1112025 15.9796569,27.9574019 C15.6327282,27.6679029 15.7445459,27.2079211 15.6339877,26.8175869 C15.6885671,26.6637468 15.7571411,26.5170393 15.8397099,26.3742477 C15.7529427,26.2945306 15.667715,26.2134149 15.5808078,26.1338377 C15.6647761,25.7236441 15.6409851,24.9894074 16.2707468,25.1226888 C16.309932,23.7647005 15.8383104,22.4500672 15.9964506,21.0905405 C16.0804188,21.1882989 16.1628476,21.2877355 16.2469558,21.3870323 L16.2021728,20.9269106 C16.4652732,20.787056 16.7451674,20.6793679 17.0390562,20.6248246 C16.5604372,20.5620299 16.0944135,20.4403564 15.625311,20.3311299 C15.5119539,20.0330998 15.5752099,19.7157697 15.6169142,19.4108866 C15.7988453,18.3815567 15.8660199,17.3382412 15.9038056,16.2949258 C16.434205,16.1105975 17.0191837,16.2670948 17.5369878,16.0208108 C17.3763286,14.7159673 17.3357439,13.3539232 17.8000883,12.1020846 C18.1737469,11.0362526 18.8876169,10.0083212 20.0014555,9.63365066 C20.5276564,9.50792137 21.189606,9.36652835 21.5615853,9.87699769 C21.6637467,9.7832951 21.765908,9.68679542 21.8680694,9.59309283 C21.0187307,7.90728533 22.0333468,5.44444561 23.9606977,5.09760617 L23.9606977,5.09760617 Z M30.7577864,12.4092053 C30.5338711,12.5462628 30.3141542,12.7030398 30.5495452,12.951981 C30.4347886,13.02037 30.3197521,13.0862415 30.203596,13.1490362 C30.0216648,13.2888908 29.6130194,13.3684681 29.6606014,13.6512541 C29.8649946,13.9792353 30.0410773,14.3240096 30.1869423,14.6818427 C30.6332335,14.3155635 30.988699,13.8229956 31.229408,13.3016176 C31.2797889,13.2498714 31.3820902,13.146379 31.4323312,13.0958914 C31.4099397,12.8567401 31.3567598,12.623043 31.2629953,12.4022126 C31.0950588,12.4051495 30.9257228,12.4078067 30.7577864,12.4092053 L30.7577864,12.4092053 Z" fill="#FFFFFF" fill-rule="nonzero" id="Shape"/></g></g></svg>